<svg width="28" height="44" viewBox="0 0 28 44" fill="none" xmlns="http://www.w3.org/2000/svg">
<g clip-path="url(#clip0_307_538)">
<path d="M7.6075 12.0485C8.2321 12.0485 8.73844 11.5422 8.73844 10.9176C8.73844 10.293 8.2321 9.78662 7.6075 9.78662C6.9829 9.78662 6.47656 10.293 6.47656 10.9176C6.47656 11.5422 6.9829 12.0485 7.6075 12.0485Z" fill="#34FFBB"/>
<path d="M18.3464 11.8043V30.2808C18.3464 32.8589 16.2564 34.9455 13.6817 34.9455C11.1036 34.9455 9.01703 32.8555 9.01703 30.2808V15.833C9.01703 15.063 8.39141 14.4374 7.62141 14.4374C6.85141 14.4374 6.22578 15.063 6.22578 15.833V17.9471C6.22578 18.8271 5.51078 19.5421 4.63078 19.5421C3.75078 19.5421 3.03578 18.8271 3.03578 17.9471V11.2474C3.03578 10.4121 2.35859 9.73145 1.51984 9.73145C0.681094 9.73145 0.00390625 10.4086 0.00390625 11.2474V30.3186C0.00390625 37.8743 6.12953 43.9999 13.6852 43.9999C21.2408 43.9999 27.3664 37.8743 27.3664 30.3186V11.8043H18.3498H18.3464Z" fill="#34FFBB"/>
<path d="M26.2628 7.04344C25.4894 7.04344 24.1556 6.80281 24.1831 4.70594C24.2037 3.19 24.4134 2.45781 24.4134 1.54688C24.4134 0.635937 23.9322 0 22.8459 0C21.7597 0 21.2784 0.635937 21.2784 1.54688C21.2784 2.45781 21.4881 3.19 21.5087 4.70594C21.5362 6.80281 20.2025 7.04344 19.4291 7.04344C18.5078 7.04344 18.3359 7.72406 18.3359 8.31188V9.65938H27.3559V8.31188C27.3559 7.72406 27.1841 7.04344 26.2628 7.04344ZM22.8459 2.04188C22.5469 2.04188 22.3062 1.80125 22.3062 1.50219C22.3062 1.20312 22.5469 0.9625 22.8459 0.9625C23.145 0.9625 23.3856 1.20312 23.3856 1.50219C23.3856 1.80125 23.145 2.04188 22.8459 2.04188Z" fill="#34FFBB"/>
</g>
<defs>
<clipPath id="clip0_307_538">
<rect width="27.3625" height="44" fill="white"/>
</clipPath>
</defs>
</svg>
